<?xml version="1.0" encoding="utf-8"?>
<!-- Generated by IcoMoon.io -->
<!DOCTYPE svg PUBLIC "-//W3C//DTD SVG 1.1//EN" "http://www.w3.org/Graphics/SVG/1.1/DTD/svg11.dtd">

<svg version="1.1" xmlns="http://www.w3.org/2000/svg" xmlns:xlink="http://www.w3.org/1999/xlink" width="544" height="64" viewBox="0 0 544 64">
<defs>
<g id="icon-add">
	<path class="path1" d="M32 64c-17.672 0-32-14.326-32-32s14.328-32 32-32c17.674 0 32 14.326 32 32s-14.326 32-32 32zM32 8c-13.254 0-24 10.746-24 24s10.746 24 24 24c13.256 0 24-10.746 24-24s-10.744-24-24-24zM36 48h-8v-12h-12v-8h12v-12h8v12h12v8h-12v12z"></path>
</g>
<g id="icon-subtract">
	<path class="path1" d="M32 0c-17.672 0-32 14.328-32 32 0 17.674 14.328 32 32 32 17.674 0 32-14.326 32-32 0-17.672-14.326-32-32-32zM32 56c-13.254 0-24-10.746-24-24s10.746-24 24-24c13.256 0 24 10.746 24 24s-10.744 24-24 24zM16 36h32v-8h-32v8z"></path>
</g>
<g id="icon-close">
	<path class="path1" d="M9.371 54.627c-12.496-12.496-12.496-32.758 0-45.255 12.5-12.496 32.758-12.496 45.258 0 12.496 12.496 12.496 32.758 0 45.255-12.5 12.498-32.758 12.498-45.258 0zM48.973 15.028c-9.375-9.373-24.571-9.373-33.942 0-9.375 9.373-9.375 24.569 0 33.942 9.371 9.373 24.567 9.373 33.942 0 9.371-9.373 9.371-24.569 0-33.942zM23.515 46.142l-5.656-5.658 8.485-8.485-8.485-8.485 5.656-5.658 8.485 8.486 8.485-8.486 5.656 5.658-8.485 8.485 8.484 8.485-5.656 5.658-8.485-8.486-8.485 8.486z"></path>
</g>
<g id="icon-minus">
	<path class="path1" d="M51.2 6.4h-38.4c-3.52 0-6.4 2.88-6.4 6.4v38.4c0 3.52 2.88 6.4 6.4 6.4h38.4c3.52 0 6.4-2.88 6.4-6.4v-38.4c0-3.52-2.88-6.4-6.4-6.4zM48 35.2h-32v-6.4h32v6.4z"></path>
</g>
<g id="icon-plus">
	<path class="path1" d="M51.2 6.4h-38.4c-3.52 0-6.4 2.88-6.4 6.4v38.4c0 3.52 2.88 6.4 6.4 6.4h38.4c3.52 0 6.4-2.88 6.4-6.4v-38.4c0-3.52-2.88-6.4-6.4-6.4zM48 35.2h-12.8v12.8h-6.4v-12.8h-12.8v-6.4h12.8v-12.8h6.4v12.8h12.8v6.4z"></path>
</g>
<g id="icon-cross">
	<path class="path1" d="M51.2 6.4h-38.4c-3.52 0-6.4 2.88-6.4 6.4v38.4c0 3.52 2.88 6.4 6.4 6.4h38.4c3.52 0 6.4-2.88 6.4-6.4v-38.4c0-3.52-2.88-6.4-6.4-6.4zM41.795 47.325l-9.795-9.792-9.795 9.795-5.53-5.533 9.792-9.795-9.792-9.792 5.53-5.533 9.795 9.792 9.792-9.792 5.533 5.53-9.792 9.795 9.795 9.795-5.533 5.53z"></path>
</g>
</defs>

<g fill="#000000">
	<use xlink:href="#icon-add" transform="translate(0 0)"></use>
	<use xlink:href="#icon-subtract" transform="translate(96 0)"></use>
	<use xlink:href="#icon-close" transform="translate(192 0)"></use>
	<use xlink:href="#icon-minus" transform="translate(288 0)"></use>
	<use xlink:href="#icon-plus" transform="translate(384 0)"></use>
	<use xlink:href="#icon-cross" transform="translate(480 0)"></use>
</g>

</svg>
