<?xml version="1.0" encoding="utf-8"?>
<!-- Generated by IcoMoon.io -->
<!DOCTYPE svg PUBLIC "-//W3C//DTD SVG 1.1//EN" "http://www.w3.org/Graphics/SVG/1.1/DTD/svg11.dtd">
<svg version="1.1" xmlns="http://www.w3.org/2000/svg" xmlns:xlink="http://www.w3.org/1999/xlink" width="64" height="64" viewBox="0 0 64 64">
<g id="icomoon-ignore">
	<line stroke-width="1" x1="" y1="" x2="" y2="" stroke="#449FDB" opacity=""></line>
</g>
	<path d="M32 64c-17.672 0-32-14.326-32-32s14.328-32 32-32c17.674 0 32 14.326 32 32s-14.326 32-32 32zM32 8c-13.254 0-24 10.746-24 24s10.746 24 24 24c13.256 0 24-10.746 24-24s-10.744-24-24-24zM36 48h-8v-12h-12v-8h12v-12h8v12h12v8h-12v12z" fill="#000000"></path>
</svg>
