<?xml version="1.0" encoding="utf-8"?>
<!-- Generated by IcoMoon.io -->
<!DOCTYPE svg PUBLIC "-//W3C//DTD SVG 1.1//EN" "http://www.w3.org/Graphics/SVG/1.1/DTD/svg11.dtd">
<svg version="1.1" xmlns="http://www.w3.org/2000/svg" xmlns:xlink="http://www.w3.org/1999/xlink" width="64" height="64" viewBox="0 0 64 64">
<g id="icomoon-ignore">
	<line stroke-width="1" x1="" y1="" x2="" y2="" stroke="#449FDB" opacity=""></line>
</g>
	<path d="M9.371 54.627c-12.496-12.496-12.496-32.758 0-45.255 12.5-12.496 32.758-12.496 45.258 0 12.496 12.496 12.496 32.758 0 45.255-12.5 12.498-32.758 12.498-45.258 0zM48.973 15.028c-9.375-9.373-24.571-9.373-33.942 0-9.375 9.373-9.375 24.569 0 33.942 9.371 9.373 24.567 9.373 33.942 0 9.371-9.373 9.371-24.569 0-33.942zM23.515 46.142l-5.656-5.658 8.485-8.485-8.485-8.485 5.656-5.658 8.485 8.486 8.485-8.486 5.656 5.658-8.485 8.485 8.484 8.485-5.656 5.658-8.485-8.486-8.485 8.486z" fill="#000000"></path>
</svg>
